<svg width="18" height="18" viewBox="0 0 30 30" fill="none" xmlns="http://www.w3.org/2000/svg">
<g clip-path="url(#clip0_1632_4)">
<path d="M1.65875 15.5L6.10875 18.75L4.41875 23.9837C4.14564 24.7955 4.14218 25.6737 4.40888 26.4876C4.67559 27.3015 5.19818 28.0073 5.89875 28.5C6.58731 29.0085 7.42174 29.2809 8.27769 29.2766C9.13364 29.2723 9.9653 28.9916 10.6487 28.4762L15 25.2737L19.3525 28.4725C20.0398 28.9781 20.8697 29.2527 21.723 29.2568C22.5762 29.261 23.4087 28.9945 24.101 28.4956C24.7932 27.9968 25.3094 27.2913 25.5754 26.4806C25.8413 25.6699 25.8434 24.7957 25.5812 23.9837L23.8913 18.75L28.3412 15.5C29.0277 14.9981 29.5379 14.2922 29.7992 13.483C30.0604 12.6738 30.0592 11.8027 29.7958 10.9942C29.5324 10.1857 29.0203 9.48116 28.3325 8.98113C27.6448 8.4811 26.8166 8.21121 25.9663 8.21H20.5L18.8412 3.04C18.5804 2.2262 18.0678 1.51627 17.3775 1.01259C16.6871 0.5089 15.8546 0.237488 15 0.237488C14.1454 0.237488 13.3129 0.5089 12.6225 1.01259C11.9322 1.51627 11.4196 2.2262 11.1587 3.04L9.5 8.21H4.03875C3.18843 8.21121 2.36024 8.4811 1.67247 8.98113C0.984707 9.48116 0.472548 10.1857 0.209149 10.9942C-0.0542504 11.8027 -0.0554163 12.6738 0.205818 13.483C0.467052 14.2922 0.977323 14.9981 1.66375 15.5H1.65875Z" fill="#FFD600"/>
</g>
<defs>
<clipPath id="clip0_1632_4">
<rect width="30" height="30" fill="white"/>
</clipPath>
</defs>
</svg>
